<svg viewBox="0 0 8263 8267" xmlns="http://www.w3.org/2000/svg" fill-rule="evenodd" clip-rule="evenodd" stroke-linejoin="round" stroke-miterlimit="2"><path fill="none" d="M0 0h8259.46v8263.88H0z"/><path d="M6877.62 2643.4s-281.675-38.917-675.433 40.033c-393.759 78.954-899.596 275.771-1347.93 747.246l2023.36-787.279z" fill="#8faa2b" fill-opacity=".25"/><path d="M6877.62 2643.4s-181.3 219.054-524.871 426.992c-343.566 207.941-849.408 404.758-1498.49 360.287l2023.36-787.279z" fill="#a2c63e" fill-opacity=".25"/><path d="M5837.79 1174.27s-241.413 150.25-493.588 462.795c-252.179 312.542-515.125 787.384-558.191 1436.56l1051.78-1899.36z" fill="#8faa2b" fill-opacity=".25"/><path d="M5837.79 1174.27s.75 284.35-130.346 663.941c-131.096 379.596-394.042 854.434-921.433 1235.42l1051.78-1899.36z" fill="#a2c63e" fill-opacity=".25"/><path d="M3433.5 7193.54s-14.684-283.971-166.196-655.888c-151.508-371.921-439.846-831.783-987.137-1183.58l1153.33 1839.46z" fill="#8faa2b" fill-opacity=".25"/><path d="M3433.5 7193.54s-249.213-136.925-517.984-435.317c-268.775-298.396-557.108-758.262-635.35-1404.15l1153.33 1839.46z" fill="#a2c63e" fill-opacity=".25"/><g fill-opacity=".25"><path d="M4128.72 4245.88v3295.38h190.171s230.587 18.884 223.012-252.254c-7.571-271.133-79.387-328.587-65.025-1448.88 14.363-1120.29 65.025-1292.64 65.025-1292.64s64.242-301.613-151.2-301.613H4128.72z" fill="#a2c63e"/><path d="M4128.72 4245.88v3295.38h-190.175s-230.588 18.884-223.013-252.254c7.575-271.133 79.388-328.587 65.025-1448.88-14.362-1120.29-65.025-1292.64-65.025-1292.64s-64.241-301.613 151.2-301.613h261.988z" fill="#8faa2b"/></g><g fill-opacity=".25"><path d="M4128.72 722.358v3295.38h190.171s230.587 18.887 223.012-252.25c-7.571-271.138-79.387-328.588-65.025-1448.88 14.363-1120.29 65.025-1292.64 65.025-1292.64s64.242-301.617-151.2-301.617H4128.72z" fill="#a2c63e"/><path d="M4128.72 722.358v3295.38h-190.175s-230.588 18.887-223.013-252.25c7.575-271.138 79.388-328.588 65.025-1448.88-14.362-1120.29-65.025-1292.64-65.025-1292.64s-64.241-301.617 151.2-301.617h261.988z" fill="#8faa2b"/></g></svg>