<svg viewBox="0 0 1983 1984" xmlns="http://www.w3.org/2000/svg" fill-rule="evenodd" clip-rule="evenodd" stroke-linejoin="round" stroke-miterlimit="2"><path fill="none" d="M0 0h1982.27v1983.33H0z"/><circle cx="990.601" cy="991.667" r="989.583" fill="#fff"/><path d="M1650.63 634.416s-67.602-9.34-162.104 9.608c-94.502 18.949-215.903 66.185-323.503 179.339l485.607-188.947z" fill="#8faa2b"/><path d="M1650.63 634.416s-43.512 52.573-125.969 102.478c-82.456 49.906-203.858 97.142-359.638 86.469l485.607-188.947z" fill="#a2c63e"/><path d="M1401.07 281.824s-57.939 36.06-118.461 111.071c-60.523 75.01-123.63 188.972-133.966 344.775l252.427-455.846z" fill="#8faa2b"/><path d="M1401.07 281.824s.18 68.244-31.283 159.346c-31.463 91.103-94.57 205.064-221.144 296.5l252.427-455.846z" fill="#a2c63e"/><path d="M824.039 1726.45s-3.524-68.153-39.887-157.413c-36.362-89.261-105.563-199.628-236.913-284.058l276.8 441.471z" fill="#8faa2b"/><path d="M824.039 1726.45s-59.811-32.862-124.316-104.476c-64.506-71.615-133.706-181.983-152.484-336.995l276.8 441.471z" fill="#a2c63e"/><g><path d="M990.893 1019.01v790.892h45.641s55.341 4.532 53.523-60.541c-1.817-65.072-19.053-78.861-15.606-347.73 3.447-268.869 15.606-310.234 15.606-310.234s15.418-72.387-36.288-72.387h-62.876z" fill="#a2c63e"/><path d="M990.893 1019.01v790.892h-45.642s-55.341 4.532-53.523-60.541c1.818-65.072 19.053-78.861 15.606-347.73-3.447-268.869-15.606-310.234-15.606-310.234s-15.418-72.387 36.288-72.387h62.877z" fill="#8faa2b"/></g><g><path d="M990.893 173.366v790.892h45.641s55.341 4.533 53.523-60.54c-1.817-65.073-19.053-78.861-15.606-347.73 3.447-268.87 15.606-310.234 15.606-310.234s15.418-72.388-36.288-72.388h-62.876z" fill="#a2c63e"/><path d="M990.893 173.366v790.892h-45.642s-55.341 4.533-53.523-60.54c1.818-65.073 19.053-78.861 15.606-347.73-3.447-268.87-15.606-310.234-15.606-310.234s-15.418-72.388 36.288-72.388h62.877z" fill="#8faa2b"/></g></svg>