<svg viewBox="0 0 216 98" xmlns="http://www.w3.org/2000/svg" fill-rule="evenodd" clip-rule="evenodd" stroke-linejoin="round" stroke-miterlimit="1.41"><g fill-rule="nonzero"><path d="M35.14 36.32c1.33 0 2 1.12 2 3.36 0 1.6-.88 6.23-2.64 13.88a460.29 460.29 0 0 1-4.72 19c-1.39 5.01-2.7 8.73-3.92 11.16a58.1 58.1 0 0 1-4.44 7.32c-1.73 2.45-3.64 4.13-5.72 5.04-2.08.9-4.48 1.36-7.2 1.36-5.07 0-7.6-2.59-7.6-7.76 0-3.04 1.15-6.32 3.44-9.84 3.3-5.17 7.73-8.59 13.28-10.24 1.97-.59 4.03-.88 6.16-.88.37 0 .56.37.56 1.12 0 .75-.19 1.12-.56 1.12-6.3 0-11.57 2.48-15.84 7.44-3.15 3.73-4.72 7.33-4.72 10.8 0 3.47 1.33 5.47 4 6l1.28.08c4.37 0 7.84-1.81 10.4-5.44 2.61-3.68 4.67-8.32 6.16-13.92 1.5-5.65 3.41-14.5 5.76-26.56h-.64C24.42 60.19 19.68 65.6 15.94 65.6c-4.21 0-6.32-3.17-6.32-9.52 0-3.68.96-7.7 2.88-12.08 2.67-5.92 6.05-9.79 10.16-11.6 1.44-.59 2.9-.88 4.36-.88a4.7 4.7 0 0 1 3.48 1.28 3.98 3.98 0 0 1 1.28 2.88c0 .48-.25.7-.76.68-.5-.03-.76-.28-.76-.76s-.25-.92-.76-1.32c-.5-.4-1.24-.6-2.2-.6-3.36 0-6.4 3.01-9.12 9.04-2.56 5.6-3.84 10.9-3.84 15.92 0 3.1.67 4.64 2 4.64 1.76 0 4.05-2.08 6.88-6.24a97.24 97.24 0 0 0 10-18.48c.64-1.5 1.28-2.24 1.92-2.24zM38.5 30.56c0-.59.37-.88 1.12-.88h4.16c.27-1.07.61-2.4 1.04-4l1.12-4.16c.32-1.23.6-2.35.84-3.36.24-1.01.7-1.52 1.4-1.52.9 0 1.55.7 1.92 2.08.16.59.24 1.3.24 2.16 0 .85-.16 1.95-.48 3.28l-1.52 5.52h4.96c.48 0 .81.16 1 .48.19.32.19.63 0 .92-.19.3-.52.44-1 .44h-5.44c-3.3 12.43-4.96 21.23-4.96 26.4 0 3.79.85 5.68 2.56 5.68 1.39 0 3.33-1.84 5.84-5.52a91.34 91.34 0 0 0 6.48-11.04l2.72-5.52h2.16a137.4 137.4 0 0 1-4.24 8.44c-1.5 2.8-2.92 5.27-4.28 7.4a36.42 36.42 0 0 1-4.56 5.8c-1.68 1.73-3.24 2.6-4.68 2.6a5.38 5.38 0 0 1-3.72-1.4 6.67 6.67 0 0 1-2-4c-.3-1.73-.44-3.5-.44-5.32 0-4.21 1.5-12.05 4.48-23.52h-3.6c-.42 0-.72-.12-.88-.36a1.17 1.17 0 0 1-.24-.6z" fill="#00cdf2"/><path d="M58.34 54.96c0 5.6 1.5 8.4 4.48 8.4 2.03 0 3.92-1.25 5.68-3.76 3.36-4.7 5.42-10.88 6.16-18.56a7.07 7.07 0 0 1-3.92-3.92 7.5 7.5 0 0 1-.72-2.84c0-.77.1-1.45.32-2.04.48-1.44 1.36-2.16 2.64-2.16s2.25.81 2.92 2.44c.67 1.63 1 3.7 1 6.2v.56a9.5 9.5 0 0 0 2.84.32c1.26 0 2.36-.5 3.32-1.52.96-1.01 1.44-1.95 1.44-2.8 0-.21.13-.36.4-.44.27-.08.52-.07.76.04.24.1.36.27.36.48 0 1.55-.65 3.01-1.96 4.4a6.86 6.86 0 0 1-5.24 2.08c-.53 0-1.22-.05-2.08-.16a46.1 46.1 0 0 1-2.28 10.76 28.78 28.78 0 0 1-5 9.2c-2.13 2.59-4.42 3.88-6.88 3.88-4.64 0-7.5-2.48-8.56-7.44-.26-1.44-.4-2.9-.4-4.4 0-3.36.78-6.96 2.32-10.8 2.03-5.01 4.54-8.13 7.52-9.36 1.55-.53 2.62-.61 3.2-.24.59.37.96.8 1.12 1.28-2.45 0-4.64 2.3-6.56 6.88a34.85 34.85 0 0 0-2.88 13.52z" fill="#a8a8a8"/><path d="M82.74 65.52c-1.5 0-2.24-1.15-2.24-3.44 0-1.23 1.5-10.16 4.48-26.8.16-1.12.64-1.68 1.44-1.68.96 0 1.68.7 2.16 2.08.27.75.4 1.56.4 2.44 0 .88-.1 1.83-.32 2.84l-1.2 6.08h.48c4.7-10.56 9.23-15.84 13.6-15.84 1.5 0 2.68.53 3.56 1.6a5.84 5.84 0 0 1 1.32 3.84c0 2.77-.42 6.24-1.28 10.4h.32c4.54-9.87 8.99-14.8 13.36-14.8a4.4 4.4 0 0 1 3.52 1.6 6.32 6.32 0 0 1 1.36 4.24c0 1.76-.68 5.5-2.04 11.2-1.36 5.7-2.04 9.73-2.04 12.08 0 3.47.64 5.2 1.92 5.2 0 .37-.24.75-.72 1.12-.48.37-1.04.56-1.68.56-3.1 0-4.64-2.43-4.64-7.28 0-3.04.77-7.43 2.32-13.16 1.55-5.73 2.32-9.41 2.32-11.04 0-1.63-.53-2.44-1.6-2.44-1.97 0-4.28 2.39-6.92 7.16a95.02 95.02 0 0 0-6.32 13.72c-1.57 4.37-2.5 7.19-2.76 8.44-.27 1.25-.75 1.88-1.44 1.88-1.5 0-2.24-1.15-2.24-3.44 0-.85.45-3.87 1.36-9.04 1.76-9.5 2.64-15.16 2.64-17 0-1.84-.53-2.76-1.6-2.76-1.44 0-3.12 1.48-5.04 4.44A58.7 58.7 0 0 0 90.02 48c-3.36 8.21-5.33 13.52-5.92 15.92-.21 1.07-.67 1.6-1.36 1.6zM137.86 17.6c1.23 0 1.84.83 1.84 2.48s-.8 2.99-2.4 4c-.8.53-1.5.8-2.08.8-.85 0-1.36-.27-1.52-.8l-.08-.24c.48 0 .83-.52 1.04-1.56.21-1.04.55-2.08 1-3.12.45-1.04 1.19-1.56 2.2-1.56zm-5.12 46c1.39 0 3.33-1.84 5.84-5.52a91.34 91.34 0 0 0 6.48-11.04l2.72-5.52h2.16a137.4 137.4 0 0 1-4.24 8.44c-1.5 2.8-2.92 5.27-4.28 7.4a36.42 36.42 0 0 1-4.56 5.8c-1.68 1.73-3.13 2.6-4.36 2.6-3.95 0-5.92-2.56-5.92-7.68 0-3.84 1.1-10.08 3.28-18.72.21-.9.39-1.6.52-2.08s.28-1.1.44-1.88c.16-.77.32-1.48.48-2.12.27-1.12.75-1.68 1.44-1.68.96 0 1.65.7 2.08 2.08.21.64.32 1.41.32 2.32 0 .9-.1 1.85-.32 2.84-.21.99-.56 2.44-1.04 4.36a138.61 138.61 0 0 0-2 9.2 40.38 40.38 0 0 0-.88 7.8c0 2.27.61 3.4 1.84 3.4z" fill="#a8a8a8"/><path d="M145.62 54.16c0 6.24 2.16 9.36 6.48 9.36 1.7 0 3.5-.76 5.4-2.28a28.12 28.12 0 0 0 5.16-5.48c3.42-4.9 5.82-8.9 7.2-12l1.04-2.24h2.16a81.7 81.7 0 0 1-4 7.88 73.14 73.14 0 0 1-5.04 7.88 31.51 31.51 0 0 1-5.68 5.8c-2.19 1.73-4.27 2.6-6.24 2.6-5.55 0-9.07-2.53-10.56-7.6-.48-1.6-.72-3.61-.72-6.04s.75-5.4 2.24-8.92c2.19-5.23 5.17-8.75 8.96-10.56 1.5-.7 2.97-1.04 4.44-1.04 1.47 0 2.63.4 3.48 1.2a4.45 4.45 0 0 1 1.52 3.32c0 1.25-.13 2.41-.4 3.48a6.02 6.02 0 0 1-1.64 2.84 3.82 3.82 0 0 1-2.76 1.24c-.42 0-.74-.3-.96-.88.43 0 1-.76 1.72-2.28a10.49 10.49 0 0 0 1.08-4.52c0-1.5-.64-2.24-1.92-2.24-2.77 0-5.3 2.32-7.56 6.96-2.26 4.64-3.4 9.15-3.4 13.52z" fill="#a8a8a8"/><path d="M182.5 44.72c2.08-3.04 3.12-5.65 3.12-7.84 0-2.19-.72-3.28-2.16-3.28-1.7 0-3.57 1.43-5.6 4.28a50.1 50.1 0 0 0-5.44 10.2c-3.1 7.63-4.98 12.9-5.68 15.84-.32 1.07-.77 1.6-1.36 1.6-.96 0-1.68-.59-2.16-1.76a5.26 5.26 0 0 1-.4-2.04c0-.72.22-2.05.64-4 .43-1.95 1.13-5.37 2.12-10.28a989.72 989.72 0 0 1 4.92-23.08c.9-4.03 1.78-7.3 2.6-9.84a70.89 70.89 0 0 1 2.84-7.32C177.97 2.6 180.3.32 182.9.32c2.4 0 3.6 1.6 3.6 4.8 0 .8-.08 1.73-.24 2.8-.8 5.07-2.9 10.3-6.32 15.68-2.45 3.9-4.77 6.35-6.96 7.36-.37 1.97-.88 4.8-1.52 8.48-.64 3.68-1.1 6.24-1.36 7.68h.4c4.53-10.3 9.15-15.44 13.84-15.44 3.52 0 5.28 1.95 5.28 5.84 0 2.56-1.08 5.33-3.24 8.32a14.46 14.46 0 0 1-8.68 5.76c1.81.7 3.35 1.9 4.6 3.64a17 17 0 0 1 2.6 5c1.23 4.21 2.45 6.32 3.68 6.32 0 .37-.24.75-.72 1.12-.48.37-1.04.56-1.68.56-1.81 0-3.24-.85-4.28-2.56a15.2 15.2 0 0 1-2.04-5.6c-.32-2.03-.9-3.9-1.76-5.6-.85-1.7-2.03-2.56-3.52-2.56h-.16c-.48 0-.83-.37-1.04-1.12 3.3 0 6.35-2.03 9.12-6.08zm2.16-39.44c0-1.7-.48-2.75-1.44-3.12-3.14 0-6.4 8.8-9.76 26.4 2.14-1.5 4.35-4.48 6.64-8.96 3.04-6.03 4.56-10.8 4.56-14.32zM201.86 17.6c1.23 0 1.84.83 1.84 2.48s-.8 2.99-2.4 4c-.8.53-1.5.8-2.08.8-.85 0-1.36-.27-1.52-.8l-.08-.24c.48 0 .83-.52 1.04-1.56.21-1.04.55-2.08 1-3.12.45-1.04 1.19-1.56 2.2-1.56zm-5.12 46c1.39 0 3.33-1.84 5.84-5.52a91.34 91.34 0 0 0 6.48-11.04l2.72-5.52h2.16a137.4 137.4 0 0 1-4.24 8.44c-1.5 2.8-2.92 5.27-4.28 7.4a36.42 36.42 0 0 1-4.56 5.8c-1.68 1.73-3.13 2.6-4.36 2.6-3.95 0-5.92-2.56-5.92-7.68 0-3.84 1.1-10.08 3.28-18.72.21-.9.39-1.6.52-2.08s.28-1.1.44-1.88c.16-.77.32-1.48.48-2.12.27-1.12.75-1.68 1.44-1.68.96 0 1.65.7 2.08 2.08.21.64.32 1.41.32 2.32 0 .9-.1 1.85-.32 2.84-.21.99-.56 2.44-1.04 4.36a138.61 138.61 0 0 0-2 9.2 40.38 40.38 0 0 0-.88 7.8c0 2.27.61 3.4 1.84 3.4z" fill="#a8a8a8"/></g></svg>